<svg width="80" height="80" viewBox="0 0 80 80" fill="none" xmlns="http://www.w3.org/2000/svg">
<rect width="80" height="80" fill="#E5E5E5"/>
<g clip-path="url(#clip0_1918_2)">
<rect width="1440" height="8306" transform="translate(-124 -1890)" fill="white"/>
<g clip-path="url(#clip1_1918_2)">
<rect x="-124" y="-154" width="1440" height="869" fill="url(#paint0_linear_1918_2)"/>
<g filter="url(#filter0_d_1918_2)">
<rect x="-24" y="-24" width="278" height="302" rx="8" fill="white"/>
<circle cx="40" cy="40" r="40" fill="#F4F6FD"/>
<g clip-path="url(#clip2_1918_2)">
<path d="M30.7001 45.1745C31.0737 44.9591 31.2015 44.4809 30.9861 44.1073C30.7703 43.7341 30.2924 43.6059 29.9189 43.8214C29.5453 44.0371 29.4172 44.5154 29.6329 44.8886C29.8484 45.2621 30.3266 45.3903 30.7001 45.1745Z" fill="#7D97F4"/>
<path d="M27.499 50.5668L31.4333 57.3817C32.2823 58.8538 34.1921 59.3989 35.7024 58.5258C37.1968 57.6621 37.7104 55.7526 36.8459 54.257L34.5021 50.1969L36.5319 49.025C36.9054 48.809 37.0336 48.3314 36.8178 47.9578L35.8019 46.1982C35.923 46.1747 36.7195 46.0184 50.7659 43.263C52.5023 43.1687 53.5427 41.2696 52.6656 39.7513L50.0691 35.2543L51.7284 32.7411C51.8913 32.494 51.9011 32.1763 51.7531 31.9199L50.1906 29.2136C50.0426 28.9573 49.7615 28.8071 49.467 28.8245L46.4614 29.0049L43.579 24.0122C43.1615 23.2889 42.4135 22.851 41.5785 22.8406C41.5685 22.8403 41.5587 22.8403 41.5486 22.8403C40.7418 22.8403 40.0093 23.2419 39.5754 23.921L29.3697 36.9221L22.7349 40.7526C20.1253 42.2587 19.2214 45.6064 20.7332 48.223C22.1144 50.6156 25.0264 51.5568 27.499 50.5668ZM35.493 55.0385C35.9246 55.785 35.6691 56.7402 34.9205 57.1726C34.1695 57.6069 33.2131 57.3401 32.7864 56.6007L28.8802 49.834L31.5865 48.2715C36.1074 56.103 35.4204 54.9131 35.493 55.0385ZM33.7209 48.8434L32.9396 47.4903L34.2928 46.709L35.074 48.0622L33.7209 48.8434ZM49.0788 30.413L50.1586 32.2831L49.1957 33.7412L47.3348 30.5176L49.0788 30.413ZM40.8821 24.7776C41.0918 24.4346 41.4244 24.3992 41.5593 24.4028C41.6927 24.4044 42.025 24.4459 42.2255 24.7932L51.3124 40.5326C51.6084 41.045 51.2486 41.6892 50.6551 41.7039C50.5486 41.7063 50.4994 41.7255 50.2266 41.7765L40.6145 25.1276C40.8162 24.8682 40.8422 24.8432 40.8821 24.7776ZM39.5748 26.4521L48.6058 42.0945L34.9761 44.7678L30.8318 37.5898L39.5748 26.4521ZM22.0864 47.4418C21.7433 46.8482 21.5621 46.1744 21.5621 45.4926C21.5621 44.0992 22.311 42.8016 23.5161 42.1058L29.6053 38.5901L33.5115 45.3559L27.4224 48.8718C25.5568 49.9485 23.1633 49.307 22.0864 47.4418Z" fill="#7D97F4"/>
<path d="M28.2798 45.6698C28.0641 45.2962 27.5862 45.1681 27.2126 45.3838L25.8595 46.1651C25.4866 46.3805 25.0077 46.2521 24.7923 45.8791C24.5765 45.5056 24.0986 45.3774 23.7251 45.5932C23.3515 45.8089 23.2234 46.2868 23.4391 46.6604C24.0821 47.7743 25.5165 48.167 26.6407 47.5182L27.9939 46.737C28.3674 46.5212 28.4956 46.0436 28.2798 45.6698Z" fill="#7D97F4"/>
<path d="M58.8392 24.5114L54.4859 26.9339C54.109 27.1439 53.9732 27.6197 54.1832 27.9965C54.3925 28.3731 54.868 28.5095 55.2458 28.2993L59.5988 25.8768C59.976 25.6668 60.1115 25.1911 59.9016 24.8142C59.6919 24.437 59.2161 24.3015 58.8392 24.5114Z" fill="#7D97F4"/>
<path d="M58.3822 32.6029L55.3637 31.7942C54.9468 31.6825 54.5183 31.9297 54.4066 32.3465C54.2949 32.7634 54.5424 33.1916 54.9593 33.3033L57.9781 34.112C58.3974 34.2246 58.8238 33.9734 58.9348 33.5596C59.0465 33.1427 58.799 32.7143 58.3822 32.6029Z" fill="#7D97F4"/>
<path d="M50.7972 21.673L49.9876 24.6918C49.8759 25.1086 50.1231 25.5368 50.54 25.6488C50.9565 25.7602 51.385 25.5136 51.497 25.0964L52.3063 22.0776C52.418 21.6607 52.1708 21.2323 51.7539 21.1206C51.3374 21.0089 50.9089 21.2561 50.7972 21.673Z" fill="#7D97F4"/>
</g>
</g>
</g>
</g>
<defs>
<filter id="filter0_d_1918_2" x="-124" y="-104" width="478" height="502" filterUnits="userSpaceOnUse" color-interpolation-filters="sRGB">
<feFlood flood-opacity="0" result="BackgroundImageFix"/>
<feColorMatrix in="SourceAlpha" type="matrix" values="0 0 0 0 0 0 0 0 0 0 0 0 0 0 0 0 0 0 127 0" result="hardAlpha"/>
<feOffset dy="20"/>
<feGaussianBlur stdDeviation="50"/>
<feColorMatrix type="matrix" values="0 0 0 0 0.352941 0 0 0 0 0.443137 0 0 0 0 0.517647 0 0 0 0.05 0"/>
<feBlend mode="normal" in2="BackgroundImageFix" result="effect1_dropShadow_1918_2"/>
<feBlend mode="normal" in="SourceGraphic" in2="effect1_dropShadow_1918_2" result="shape"/>
</filter>
<linearGradient id="paint0_linear_1918_2" x1="-124" y1="-154" x2="-124" y2="715" gradientUnits="userSpaceOnUse">
<stop stop-color="#FAFBFB" stop-opacity="0.01"/>
<stop offset="1" stop-color="#7D97F4" stop-opacity="0.08"/>
</linearGradient>
<clipPath id="clip0_1918_2">
<rect width="1440" height="8306" fill="white" transform="translate(-124 -1890)"/>
</clipPath>
<clipPath id="clip1_1918_2">
<rect width="1440" height="869" fill="white" transform="translate(-124 -154)"/>
</clipPath>
<clipPath id="clip2_1918_2">
<rect width="40" height="40" fill="white" transform="translate(20 20)"/>
</clipPath>
</defs>
</svg>
